<svg width="683" height="50" viewBox="0 0 683 50" fill="none" xmlns="http://www.w3.org/2000/svg">
<g clip-path="url(#clip0_7_152)">
<path fill-rule="evenodd" clip-rule="evenodd" d="M26.1308 41.1364L21.4096 48.4849H0.568359L33.0806 0H43.6757V5.07576V13.8281L33.4317 29.7727H54.0033H69.3822H74.2999L86.9646 48.4849H66.1234L61.3637 41.1364H26.1308ZM111.986 34.0909V0H93.0393V48.4849H156.169V34.0909H111.986ZM184.617 0H165.67V48.4849H184.617V0ZM265.323 29.4821V0H284.269V48.4849H265.323L215.304 19.534V48.4849H196.357V0H215.304L265.323 29.4821ZM315.879 41.1364L311.158 48.4849H290.317L322.829 0H333.424V5.07576V13.8281L323.18 29.7727H343.752H359.131H364.049L376.713 48.4849H355.872L351.112 41.1364H315.879ZM425.195 31.1364V48.4849H406.249V0H425.195V16.7424H473.698V0H492.645V48.4849H473.698V31.1364H425.195ZM587.929 35.2273C588.835 33.5311 589.486 31.6372 589.885 29.5455H568.844C568.695 29.7284 568.539 29.9052 568.377 30.0758C566.406 32.197 563.576 33.6617 559.888 34.4697C556.201 35.2273 551.855 35.6061 546.853 35.6061C541.7 35.6061 537.278 35.2273 533.591 34.4697C529.953 33.6617 527.149 32.197 525.178 30.0758C523.208 27.9546 522.223 24.8738 522.223 20.8333V0H503.276V24.2424C503.276 28.5353 504.034 32.197 505.55 35.2273C507.116 38.2071 509.263 40.6818 511.992 42.6515C514.72 44.5708 517.903 46.0606 521.541 47.1212C525.228 48.1818 529.221 48.9141 533.515 49.3182C537.809 49.7727 542.256 50 546.853 50C551.199 50 555.467 49.7727 559.661 49.3182C563.905 48.9141 567.872 48.1818 571.56 47.1212C575.247 46.0606 578.506 44.5708 581.336 42.6515C584.166 40.6818 586.364 38.2071 587.929 35.2273ZM627.509 0H600.969V14.3939H627.509H648.823L627.509 23.1667L600.969 34.0909V48.4849H627.509H654.406H681.302V34.0909H654.406H633.645L654.406 25.5104L681.302 14.3939V0H654.406H627.509Z" fill="#F0F0F0"/>
</g>
<defs>
<clipPath id="clip0_7_152">
<rect width="682.076" height="50" fill="white"/>
</clipPath>
</defs>
</svg>
