<svg xmlns="http://www.w3.org/2000/svg" width="164" height="12" fill="none" xmlns:v="https://vecta.io/nano"><g clip-path="url(#A)"><path fill-rule="evenodd" d="M6.271 9.815l-1.133 1.617H.136L7.939.765h2.543v1.117 1.926L8.024 7.315h4.937 3.691 1.18l3.04 4.117H15.87l-1.142-1.617H6.271zm20.605-1.55v-7.5H22.33v10.667h15.151V8.265H26.877zm17.431-7.5h-4.547v10.667h4.547V.765zm19.37 6.486V.765h4.547v10.667h-4.547L51.673 5.062v6.369h-4.547V.765h4.547l12.005 6.486zm12.134 2.564l-1.133 1.617h-5.002L77.479.765h2.543v1.117 1.926l-2.459 3.508h4.937 3.691 1.18l3.04 4.117h-5.002l-1.142-1.617h-8.456zm26.236-2.2v3.817H97.5V.765h4.547v3.683h11.641V.765h4.547v10.667h-4.547V7.615h-11.641zm39.056.9a4.13 4.13 0 0 0 .469-1.25h-5.049l-.113.117c-.472.467-1.152.789-2.037.967-.885.167-1.928.25-3.128.25-1.237 0-2.298-.083-3.183-.25-.873-.178-1.546-.5-2.019-.967s-.709-1.144-.709-2.033V.765h-4.548v5.333c0 .944.182 1.75.546 2.417a4.81 4.81 0 0 0 1.546 1.633c.655.422 1.419.75 2.292.983.885.233 1.843.394 2.874.483 1.03.1 2.098.15 3.201.15l3.074-.15a17 17 0 0 0 2.855-.483c.885-.233 1.668-.561 2.347-.983.679-.433 1.206-.978 1.582-1.633zm9.499-7.75h-6.369v3.167h6.369 5.116l-5.116 1.93-6.369 2.403v3.167h6.369 6.455 6.456V8.265h-6.456-4.982l4.982-1.888 6.456-2.446V.765h-6.456-6.455z" fill="#fff"/></g><defs><clipPath id="A"><path fill="#fff" transform="translate(0 .765)" d="M0 0h163.698v11H0z"/></clipPath></defs></svg>