<svg xmlns="http://www.w3.org/2000/svg" width="164" height="12" fill="none" xmlns:v="https://vecta.io/nano"><g clip-path="url(#A)"><path fill-rule="evenodd" d="M6.271 9.873l-1.133 1.764H.136L7.939 0h2.543v1.218 2.101L8.024 7.145h4.937 3.691 1.18l3.04 4.491H15.87l-1.142-1.764H6.271zm20.605-1.691V0H22.33v11.636h15.151V8.182H26.877zM44.308 0h-4.547v11.636h4.547V0zm19.37 7.076V0h4.547v11.636h-4.547L51.673 4.688v6.948h-4.547V0h4.547l12.005 7.076zm12.134 2.797l-1.133 1.764h-5.002L77.479 0h2.543v1.218 2.101l-2.459 3.827h4.937 3.691 1.18l3.04 4.491h-5.002l-1.142-1.764h-8.456zm26.236-2.4v4.164H97.5V0h4.547v4.018h11.641V0h4.547v11.636h-4.547V7.473h-11.641zm39.056.982c.217-.407.374-.862.469-1.364h-5.049l-.113.127c-.472.509-1.152.861-2.037 1.055-.885.182-1.928.273-3.128.273-1.237 0-2.298-.091-3.183-.273-.873-.194-1.546-.545-2.019-1.055s-.709-1.248-.709-2.218V0h-4.548v5.818c0 1.03.182 1.909.546 2.636a5.09 5.09 0 0 0 1.546 1.782c.655.461 1.419.818 2.292 1.073.885.254 1.843.43 2.874.527 1.03.109 2.098.164 3.201.164 1.043 0 2.067-.055 3.074-.164 1.018-.097 1.97-.273 2.855-.527s1.668-.612 2.347-1.073c.679-.473 1.206-1.067 1.582-1.782zM150.602 0h-6.369v3.455h6.369 5.116l-5.116 2.105-6.369 2.622v3.455h6.369 6.455 6.456V8.182h-6.456-4.982l4.982-2.059 6.456-2.668V0h-6.456-6.455z" fill="#0c0c0c"/></g><defs><clipPath id="A"><path fill="0c0c0c" d="M0 0h163.698v12H0z"/></clipPath></defs></svg>