<svg xmlns="http://www.w3.org/2000/svg" width="67" height="28" fill="#1c1c1c" xmlns:v="https://vecta.io/nano"><path d="M56.625 25c-.656 0-1.312-.656-1.312-1.312V.281H47v1.531h.656c.656 0 1.313.656 1.313 1.313v6.344c-1.531-1.75-3.937-3.062-6.344-3.062-5.031 0-8.969 4.594-8.969 10.5s3.938 10.5 8.969 10.5c2.406 0 4.594-1.094 6.344-3.062v2.406h8.094V25.22h-.437V25zm-12.687-.656c-2.406 0-4.375-3.281-4.375-7.219s1.969-7.219 4.375-7.219 4.375 3.281 4.375 7.219-1.969 7.219-4.375 7.219zm-28.875-17.5c-4.156 0-6.344 2.406-6.344 2.406V6.844H.406v1.75h.438c.875 0 1.313.656 1.313 1.313v13.781C2.156 24.344 1.5 25 .844 25H.406v1.531h10.063V25h-.438c-.656 0-1.312-.656-1.312-1.312V12.094c0-1.75 3.5-2.844 3.5-2.625s-.219.656 0 .875a3.45 3.45 0 0 0 3.5 3.5c1.969 0 3.5-1.312 3.5-3.281-.219-1.969-1.75-3.719-4.156-3.719zM32.781 25c-.656 0-1.312-.656-1.312-1.312V11.875c0-3.062-1.531-5.031-4.375-5.031h-5.906v1.094H22.5c1.969 0 2.625 1.531 2.625 3.938-.656.438-2.844 1.313-7.875 3.5-3.281 1.531-3.5 3.938-3.5 6.125 0 3.063 2.188 5.469 5.031 5.469 3.719 0 6.344-3.5 6.344-3.5v3.062h8.531V25h-.875zm-8.094-3.719s-1.312 1.531-3.062 1.531c-1.531 0-2.406-1.094-2.406-2.406 0-2.187 1.75-2.844 5.469-5.469v6.344zm37.625-.656c1.313 0 2.188.219 3.063 1.094.438.656.656 1.313.656 1.969 0 1.313-.875 2.188-1.969 2.625-.875.219-1.75.219-2.625 0-.656-.219-1.312-.656-1.75-1.312s-.437-1.531-.219-2.187c.219-1.094 1.094-1.75 2.188-2.187.219.219.438.219.656 0z"/></svg>