<svg width="256" height="256" viewBox="0 0 256 256" fill="none" xmlns="http://www.w3.org/2000/svg">
<circle cx="128" cy="128" r="128" fill="#050505"/>
<path d="M207.45 159.663C205.477 159.663 203.504 157.689 203.504 155.716V85.3334H178.508V89.9378H180.481C182.455 89.9378 184.428 91.9112 184.428 93.8845V112.96C179.823 107.698 172.588 103.751 165.352 103.751C150.223 103.751 138.383 117.565 138.383 135.325C138.383 153.085 150.223 166.898 165.352 166.898C172.588 166.898 179.166 163.609 184.428 157.689V164.925H208.766V160.32H207.45V159.663ZM169.299 157.689C162.063 157.689 156.143 147.823 156.143 135.982C156.143 124.142 162.063 114.276 169.299 114.276C176.535 114.276 182.455 124.142 182.455 135.982C182.455 147.823 176.535 157.689 169.299 157.689Z" fill="white"/>
<path d="M82.4712 105.067C69.9734 105.067 63.3956 112.302 63.3956 112.302V105.067H38.3999V110.329H39.7155C42.3466 110.329 43.6621 112.302 43.6621 114.276V155.716C43.6621 157.689 41.6888 159.662 39.7155 159.662H38.3999V164.267H68.6578V159.662H67.3423C65.3689 159.662 63.3956 157.689 63.3956 155.716V120.853C63.3956 115.591 73.9201 112.302 73.9201 112.96C73.9201 113.618 73.2623 114.933 73.9201 115.591C73.9201 121.511 78.5245 126.116 84.4446 126.116C90.3646 126.116 94.969 122.169 94.969 116.249C94.3113 110.329 89.7068 105.067 82.4712 105.067Z" fill="white"/>
<path d="M135.752 159.662C133.778 159.662 131.805 157.689 131.805 155.716V120.196C131.805 110.987 127.201 105.067 118.65 105.067H100.889V108.356H104.836C110.756 108.356 112.729 112.96 112.729 120.196C110.756 121.511 104.178 124.142 89.0494 130.72C79.1827 135.325 78.5249 142.56 78.5249 149.138C78.5249 158.347 85.1027 165.582 93.6539 165.582C104.836 165.582 112.729 155.058 112.729 155.058V164.267H138.383V159.662H135.752ZM111.414 148.48C111.414 148.48 107.467 153.085 102.205 153.085C97.6005 153.085 94.9694 149.796 94.9694 145.849C94.9694 139.271 100.232 137.298 111.414 129.405V148.48Z" fill="white"/>
<path d="M224.552 146.507C228.499 146.507 231.13 147.164 233.761 149.796C235.077 151.769 235.734 153.742 235.734 155.716C235.734 159.662 233.103 162.293 229.814 163.609C227.183 164.267 224.552 164.267 221.921 163.609C219.948 162.951 217.974 161.636 216.659 159.662C215.343 157.689 215.343 155.058 216.001 153.085C216.659 149.796 219.29 147.822 222.579 146.507C223.237 147.164 223.894 147.164 224.552 146.507Z" fill="white"/>
</svg>
